<svg width="181" height="48" viewBox="0 0 181 48" fill="none" xmlns="http://www.w3.org/2000/svg">
<path d="M174.878 15.6402C174.451 14.6535 173.798 13.8935 172.918 13.3602C172.065 12.8268 171.038 12.5602 169.838 12.5602C168.638 12.5602 167.611 12.8268 166.758 13.3602C165.905 13.8935 165.265 14.6535 164.838 15.6402H174.878ZM169.838 24.4002C171.865 24.4002 173.371 23.6802 174.358 22.2402H179.598C178.931 24.2668 177.745 25.8668 176.038 27.0402C174.358 28.2135 172.305 28.8002 169.878 28.8002C168.331 28.8002 166.918 28.5602 165.638 28.0802C164.358 27.5735 163.265 26.8668 162.358 25.9602C161.451 25.0535 160.745 23.9602 160.238 22.6802C159.758 21.4002 159.518 19.9868 159.518 18.4402C159.518 16.8935 159.758 15.4935 160.238 14.2402C160.745 12.9602 161.451 11.8802 162.358 11.0002C163.265 10.0935 164.358 9.40016 165.638 8.92016C166.918 8.41349 168.331 8.16016 169.878 8.16016C171.425 8.16016 172.825 8.41349 174.078 8.92016C175.358 9.40016 176.451 10.0935 177.358 11.0002C178.265 11.8802 178.958 12.9602 179.438 14.2402C179.945 15.4935 180.198 16.8935 180.198 18.4402C180.198 18.7335 180.185 19.0135 180.158 19.2802C180.158 19.5202 180.145 19.7735 180.118 20.0402H164.478C164.745 21.4268 165.345 22.5068 166.278 23.2802C167.211 24.0268 168.398 24.4002 169.838 24.4002Z" fill="#43A594"/>
<path d="M149.336 17.2401C149.336 14.2001 150.229 11.9201 152.016 10.4001C153.803 8.85341 156.216 8.08008 159.256 8.08008V12.4801C157.656 12.4801 156.403 12.8801 155.496 13.6801C154.589 14.4534 154.136 15.6401 154.136 17.2401V28.4401H149.336V17.2401Z" fill="#43A594"/>
<path d="M142.344 8.44H147.144V28.44H142.344V8.44ZM142.104 2.64C142.104 1.92 142.357 1.30667 142.864 0.799999C143.37 0.266666 143.997 0 144.744 0C145.49 0 146.117 0.266666 146.624 0.799999C147.13 1.30667 147.384 1.92 147.384 2.64C147.384 3.41333 147.13 4.05333 146.624 4.56C146.117 5.06667 145.49 5.32 144.744 5.32C143.997 5.32 143.37 5.06667 142.864 4.56C142.357 4.05333 142.104 3.41333 142.104 2.64Z" fill="#43A594"/>
<path d="M117.695 0.439941H122.695V11.9999H134.935V0.439941H139.935V28.4399H134.935V16.5999H122.695V28.4399H117.695V0.439941Z" fill="#43A594"/>
<path d="M104.954 8.16016C106.501 8.16016 107.914 8.41349 109.194 8.92016C110.474 9.40016 111.568 10.0935 112.474 11.0002C113.381 11.9068 114.074 13.0002 114.554 14.2802C115.061 15.5602 115.314 16.9735 115.314 18.5202V28.4402H110.514V26.5202C110.034 27.1335 109.288 27.6668 108.274 28.1202C107.288 28.5735 106.061 28.8002 104.594 28.8002C103.154 28.8002 101.821 28.5602 100.594 28.0802C99.3676 27.5735 98.3143 26.8668 97.4343 25.9602C96.5543 25.0535 95.8609 23.9602 95.3543 22.6802C94.8743 21.4002 94.6343 19.9868 94.6343 18.4402C94.6343 16.8935 94.8743 15.4935 95.3543 14.2402C95.8609 12.9602 96.5676 11.8802 97.4743 11.0002C98.3809 10.0935 99.4609 9.40016 100.714 8.92016C101.994 8.41349 103.408 8.16016 104.954 8.16016ZM110.514 18.4802C110.514 16.6135 110.008 15.1602 108.994 14.1202C108.008 13.0802 106.674 12.5602 104.994 12.5602C103.314 12.5602 101.968 13.0802 100.954 14.1202C99.9409 15.1602 99.4343 16.6135 99.4343 18.4802C99.4343 20.3468 99.9409 21.8002 100.954 22.8402C101.968 23.8802 103.314 24.4002 104.994 24.4002C106.674 24.4002 108.008 23.8802 108.994 22.8402C110.008 21.8002 110.514 20.3468 110.514 18.4802Z" fill="#43A594"/>
<path d="M84.4922 17.2401C84.4922 14.2001 85.3855 11.9201 87.1722 10.4001C88.9589 8.85341 91.3722 8.08008 94.4122 8.08008V12.4801C92.8122 12.4801 91.5589 12.8801 90.6522 13.6801C89.7455 14.4534 89.2922 15.6401 89.2922 17.2401V28.4401H84.4922V17.2401Z" fill="#43A594"/>
<path d="M84.2392 4.56016C82.3459 4.56016 80.9992 4.96016 80.1992 5.76016C79.3992 6.53349 78.9992 7.84016 78.9992 9.68016V28.4402H74.1992V9.64016C74.1992 6.52016 75.0392 4.16016 76.7192 2.56016C78.4259 0.960156 80.9326 0.160156 84.2392 0.160156V4.56016ZM72.1992 12.8402V8.44016H83.5592V12.8402H72.1992Z" fill="#43A594"/>
<path d="M62.0906 8.08008C63.744 8.08008 65.144 8.36008 66.2906 8.92008C67.464 9.45341 68.424 10.1467 69.1706 11.0001C69.9173 11.8267 70.4506 12.7334 70.7706 13.7201C71.1173 14.7067 71.2906 15.6401 71.2906 16.5201V28.4401H66.4906V16.6401C66.4906 15.9201 66.3706 15.3067 66.1306 14.8001C65.8906 14.2934 65.5706 13.8667 65.1706 13.5201C64.7706 13.1734 64.304 12.9201 63.7706 12.7601C63.2373 12.6001 62.6773 12.5201 62.0906 12.5201C61.504 12.5201 60.944 12.6001 60.4106 12.7601C59.8773 12.9201 59.4106 13.1734 59.0106 13.5201C58.6106 13.8667 58.2906 14.2934 58.0506 14.8001C57.8106 15.3067 57.6906 15.9201 57.6906 16.6401V28.4401H52.8906V16.5201C52.8906 15.6401 53.0506 14.7067 53.3706 13.7201C53.7173 12.7334 54.264 11.8267 55.0106 11.0001C55.7573 10.1467 56.704 9.45341 57.8506 8.92008C59.024 8.36008 60.4373 8.08008 62.0906 8.08008Z" fill="#43A594"/>
<path d="M45.8982 8.44H50.6982V28.44H45.8982V8.44ZM45.6582 2.64C45.6582 1.92 45.9115 1.30667 46.4182 0.799999C46.9249 0.266666 47.5515 0 48.2982 0C49.0449 0 49.6715 0.266666 50.1782 0.799999C50.6849 1.30667 50.9382 1.92 50.9382 2.64C50.9382 3.41333 50.6849 4.05333 50.1782 4.56C49.6715 5.06667 49.0449 5.32 48.2982 5.32C47.5515 5.32 46.9249 5.06667 46.4182 4.56C45.9115 4.05333 45.6582 3.41333 45.6582 2.64Z" fill="#43A594"/>
<path d="M24.8438 0.439941H43.8838V5.03994H29.8438V11.3999H41.4038V15.9999H29.8438V23.8799H43.8838V28.4799L24.8438 28.4399V0.439941Z" fill="#1C5F9E"/>
<path d="M0 0.439941H13C14.4933 0.439941 15.84 0.679942 17.04 1.15994C18.2667 1.63994 19.3067 2.31994 20.16 3.19994C21.0133 4.07994 21.68 5.14661 22.16 6.39994C22.64 7.62661 22.88 8.99994 22.88 10.5199C22.88 12.7066 22.3867 14.5999 21.4 16.1999C20.4133 17.7733 19.04 18.9199 17.28 19.6399L23.04 28.4399H17.12L11.88 20.4399H5V28.4399H0V0.439941ZM12.52 15.8399C14.1467 15.8399 15.44 15.3599 16.4 14.3999C17.3867 13.4133 17.88 12.0799 17.88 10.3999C17.88 8.77328 17.3867 7.47994 16.4 6.51994C15.44 5.53327 14.1467 5.03994 12.52 5.03994H5V15.8399H12.52Z" fill="#1C5F9E"/>
<path d="M173.235 37.2221V35.7998H180.198V37.2221H177.5V45.1658H175.932V37.2221H173.235Z" fill="#1C5F9E"/>
<path d="M162.744 35.7998H164.678L167.269 42.5865H167.371L169.962 35.7998H171.897V45.1658H170.38V38.7313H170.299L167.887 45.1384H166.754L164.342 38.7175H164.261V45.1658H162.744V35.7998Z" fill="#1C5F9E"/>
<path d="M155.021 45.1658V35.7998H158.294C158.964 35.7998 159.527 35.934 159.981 36.2023C160.439 36.4705 160.784 36.8395 161.017 37.309C161.253 37.7754 161.37 38.3059 161.37 38.9005C161.37 39.5011 161.253 40.0346 161.017 40.5011C160.781 40.9676 160.433 41.335 159.973 41.6033C159.512 41.8685 158.946 42.0011 158.272 42.0011H156.103V40.6063H158.059C158.451 40.6063 158.772 40.5331 159.022 40.3868C159.272 40.2404 159.457 40.0392 159.576 39.7831C159.699 39.527 159.76 39.2328 159.76 38.9005C159.76 38.5681 159.699 38.2755 159.576 38.0224C159.457 37.7693 159.271 37.5727 159.018 37.4325C158.768 37.2892 158.446 37.2175 158.051 37.2175H156.602V45.1658H155.021Z" fill="#1C5F9E"/>
<path d="M147.298 45.1658V35.7998H150.571C151.242 35.7998 151.804 35.934 152.259 36.2023C152.716 36.4705 153.061 36.8395 153.294 37.309C153.53 37.7754 153.648 38.3059 153.648 38.9005C153.648 39.5011 153.53 40.0346 153.294 40.5011C153.058 40.9676 152.71 41.335 152.25 41.6033C151.79 41.8685 151.223 42.0011 150.55 42.0011H148.381V40.6063H150.337C150.729 40.6063 151.05 40.5331 151.3 40.3868C151.55 40.2404 151.734 40.0392 151.854 39.7831C151.976 39.527 152.037 39.2328 152.037 38.9005C152.037 38.5681 151.976 38.2755 151.854 38.0224C151.734 37.7693 151.548 37.5727 151.296 37.4325C151.046 37.2892 150.723 37.2175 150.328 37.2175H148.879V45.1658H147.298Z" fill="#1C5F9E"/>
<path d="M145.576 35.7998V45.1658H144.169L140.057 38.7861H139.985V45.1658H138.404V35.7998H139.819L143.927 42.1841H144.003V35.7998H145.576Z" fill="#1C5F9E"/>
<path d="M129.404 47.7998C129.194 47.7998 128.999 47.7815 128.82 47.7449C128.644 47.7114 128.503 47.6718 128.398 47.626L128.756 46.3364C128.981 46.4065 129.181 46.44 129.357 46.437C129.533 46.4339 129.688 46.3745 129.822 46.2586C129.958 46.1458 130.073 45.9568 130.167 45.6915L130.299 45.312L127.925 38.1411H129.562L131.07 43.4461H131.138L132.651 38.1411H134.292L131.671 46.0162C131.549 46.3882 131.387 46.7068 131.185 46.972C130.984 47.2403 130.736 47.4446 130.444 47.5849C130.154 47.7282 129.807 47.7998 129.404 47.7998Z" fill="#1C5F9E"/>
<path d="M120.626 45.1658V35.7998H123.967C124.598 35.7998 125.122 35.9065 125.54 36.1199C125.96 36.3303 126.274 36.6184 126.482 36.9843C126.692 37.3501 126.797 37.7648 126.797 38.2282C126.797 38.6093 126.729 38.9355 126.592 39.2069C126.456 39.4752 126.273 39.6932 126.043 39.8608C125.813 40.0285 125.555 40.149 125.271 40.2221V40.3136C125.581 40.3319 125.878 40.434 126.162 40.62C126.449 40.8029 126.683 41.0621 126.865 41.3975C127.047 41.7328 127.138 42.1383 127.138 42.6139C127.138 43.0987 127.028 43.5347 126.81 43.9219C126.591 44.306 126.261 44.6094 125.821 44.832C125.381 45.0545 124.827 45.1658 124.159 45.1658H120.626ZM122.207 43.7481H123.908C124.482 43.7481 124.895 43.6307 125.148 43.396C125.403 43.1582 125.531 42.8533 125.531 42.4813C125.531 42.2039 125.467 41.9539 125.34 41.7313C125.212 41.5057 125.03 41.3289 124.794 41.2008C124.558 41.0697 124.277 41.0042 123.95 41.0042H122.207V43.7481ZM122.207 39.7831H123.771C124.044 39.7831 124.29 39.7297 124.509 39.623C124.727 39.5133 124.899 39.3593 125.024 39.1611C125.152 38.9599 125.216 38.7221 125.216 38.4477C125.216 38.0849 125.097 37.7861 124.858 37.5514C124.622 37.3166 124.271 37.1992 123.805 37.1992H122.207V39.7831Z" fill="#1C5F9E"/>
<path d="M115.959 39.8013V41.1641H112.03V39.8013H115.959Z" fill="#1C5F9E"/>
</svg>
